<?xml version="1.0" standalone="no"?>
<!DOCTYPE svg PUBLIC "-//W3C//DTD SVG 20010904//EN"
 "http://www.w3.org/TR/2001/REC-SVG-20010904/DTD/svg10.dtd">
<svg version="1.0" xmlns="http://www.w3.org/2000/svg"
 width="500.000000pt" height="500.000000pt" viewBox="0 0 500.000000 500.000000"
 preserveAspectRatio="xMidYMid meet">
<metadata>
Created by potrace 1.14, written by Peter Selinger 2001-2017
</metadata>
<g transform="translate(0.000000,500.000000) scale(0.100000,-0.100000)"
fill="#000000" stroke="none">
<path d="M2422 3503 c0 -109 -3 -163 -9 -161 -20 5 -181 -26 -217 -42 -23 -10
-57 -24 -76 -31 -64 -24 -145 -88 -201 -158 -121 -154 -109 -393 25 -519 46
-42 186 -132 186 -118 0 3 26 -4 58 -15 31 -11 90 -27 130 -35 41 -8 81 -18
89 -23 13 -7 16 -40 15 -227 0 -121 -1 -238 -1 -260 l-1 -42 -37 8 c-99 23
-183 101 -200 185 l-9 40 -169 0 c-192 0 -182 5 -160 -85 37 -146 133 -244
306 -312 66 -27 101 -35 223 -53 l46 -7 1 -62 c1 -33 0 -76 -1 -93 -1 -32 -1
-33 42 -34 59 -1 132 2 136 6 2 2 4 44 4 94 0 86 1 91 21 92 12 0 29 2 37 4 8
1 43 8 77 14 67 13 151 47 223 93 72 45 134 113 176 191 l39 72 0 120 c-1 112
-3 123 -29 173 -35 65 -112 135 -191 172 -79 37 -210 79 -271 87 -88 10 -83
-10 -82 281 l0 259 34 -12 c19 -6 40 -17 46 -23 7 -7 16 -12 21 -12 14 0 70
-49 84 -74 17 -29 30 -58 37 -78 5 -16 22 -18 175 -18 l169 0 -5 23 c-24 110
-77 213 -133 260 -81 69 -208 131 -288 142 -154 21 -143 14 -142 103 1 43 1
85 1 95 -1 15 -12 17 -90 17 l-89 0 0 -37z m-1 -400 c0 -19 0 -359 -1 -427 0
-32 -3 -37 -17 -33 -107 34 -180 76 -211 122 -25 37 -37 129 -23 180 17 64 51
103 116 134 98 47 134 54 136 24z m227 -759 c20 -9 45 -17 56 -19 34 -8 123
-83 141 -121 36 -76 12 -186 -54 -247 -38 -36 -114 -75 -152 -79 l-34 -3 -2
243 c0 133 1 242 3 242 3 0 21 -7 42 -16z"/>
</g>
</svg>
